<svg width="560" height="800" viewBox="0 0 560 800" fill="none" xmlns="http://www.w3.org/2000/svg">
  <rect width="560" height="800" fill="#F8F8F5"/>
  <text x="280" y="62" text-anchor="middle" fill="#3A3A3A" font-family="Georgia, 'Times New Roman', serif" font-size="26">
    Conceição Evaristo
  </text>
  <text x="280" y="130" text-anchor="middle" fill="#101010" font-family="Arial, Helvetica, sans-serif" font-size="62" letter-spacing="1.5">
    OLHOS D’ÁGUA
  </text>

  <g transform="translate(54 210)">
    <ellipse cx="226" cy="150" rx="188" ry="102" fill="#F2F2F2" stroke="#202020" stroke-width="8"/>
    <ellipse cx="226" cy="150" rx="104" ry="70" fill="#FFFFFF" stroke="#1F1F1F" stroke-width="5"/>
    <ellipse cx="226" cy="154" rx="42" ry="42" fill="#111111"/>
    <ellipse cx="212" cy="140" rx="10" ry="10" fill="#FFFFFF"/>
    <path d="M28 126C108 52 232 26 402 102" stroke="#202020" stroke-width="11" stroke-linecap="round"/>
    <path d="M52 90C124 28 286 14 420 86" stroke="#2D2D2D" stroke-width="16" stroke-linecap="round" opacity="0.68"/>
    <path d="M110 216C176 244 284 248 352 214" stroke="#2A2A2A" stroke-width="8" stroke-linecap="round"/>
    <path d="M182 238C170 292 164 336 150 380" stroke="#7D7D7D" stroke-width="8" stroke-linecap="round" opacity="0.72"/>
    <path d="M212 244C212 316 200 388 180 462" stroke="#B2B2B2" stroke-width="18" stroke-linecap="round" opacity="0.45"/>
    <path d="M250 238C256 302 280 362 308 430" stroke="#C9C9C9" stroke-width="14" stroke-linecap="round" opacity="0.4"/>
    <circle cx="354" cy="110" r="5" fill="#5F5F5F" opacity="0.42"/>
    <circle cx="384" cy="100" r="6" fill="#5F5F5F" opacity="0.32"/>
  </g>

  <text x="410" y="690" fill="#4B4B4B" font-family="Arial, Helvetica, sans-serif" font-size="15" text-anchor="end">
    1ª edição
  </text>
  <text x="410" y="712" fill="#4B4B4B" font-family="Arial, Helvetica, sans-serif" font-size="15" text-anchor="end">
    8ª reimpressão
  </text>
  <text x="410" y="734" fill="#4B4B4B" font-family="Arial, Helvetica, sans-serif" font-size="15" text-anchor="end">
    Rio de Janeiro
  </text>
  <text x="410" y="756" fill="#4B4B4B" font-family="Arial, Helvetica, sans-serif" font-size="15" text-anchor="end">
    2016
  </text>

  <rect x="58" y="710" width="58" height="58" rx="6" stroke="#2F2F2F" stroke-width="4"/>
  <circle cx="87" cy="739" r="18" stroke="#2F2F2F" stroke-width="4"/>
  <path d="M75 748C79 740 95 740 99 748" stroke="#2F2F2F" stroke-width="4" stroke-linecap="round"/>
  <path d="M77 732H97" stroke="#2F2F2F" stroke-width="4" stroke-linecap="round"/>

  <text x="168" y="758" fill="#1E1E1E" font-family="Georgia, 'Times New Roman', serif" font-size="54">Pallas</text>
  <text x="358" y="758" fill="#585858" font-family="Arial, Helvetica, sans-serif" font-size="18" text-anchor="middle">
    Secretaria de Políticas de Promoção
  </text>
  <text x="358" y="780" fill="#585858" font-family="Arial, Helvetica, sans-serif" font-size="18" text-anchor="middle">
    da Igualdade Racial
  </text>
  <text x="490" y="752" fill="#3C3C3C" font-family="Arial Black, Arial, sans-serif" font-size="34" text-anchor="middle">
    BRASIL
  </text>
  <text x="490" y="777" fill="#777777" font-family="Arial, Helvetica, sans-serif" font-size="13" text-anchor="middle">
    PAÍS RICO É PAÍS SEM POBREZA
  </text>
</svg>
